# xmcd
#
# Track frame offsets: 
#        150
#        25868
#        51156
#        65460
#        82951
#        96299
#        118473
#        142594
#        169982
#        187292
#        207174
#
# Disc length: 3042 seconds
#
# Revision: 0
# Processed by: cddbd v1.5.2PL0 Copyright (c) Steve Scherf et al.
# Submitted via: ExactAudioCopy v1.1
#
DISCID=9c0be00b
DTITLE=Blues Himmel - SA MO SO
DYEAR=2015
DGENRE=Blues
TTITLE0=Alte Krieger
TTITLE1=Ich waat uff dich
TTITLE2=Sa Mo So
TTITLE3=Ohne inne kenn auﬂe
TTITLE4=Mei Traum
TTITLE5=Unn es laaft
TTITLE6=De Syndikus
TTITLE7=Eijoh
TTITLE8=Geburtstagslied
TTITLE9=Am Horizont
TTITLE10=Venezia
EXTD=
EXTT0=
EXTT1=
EXTT2=
EXTT3=
EXTT4=
EXTT5=
EXTT6=
EXTT7=
EXTT8=
EXTT9=
EXTT10=
PLAYORDER=
